<svg xmlns="http://www.w3.org/2000/svg" viewBox="0 0 240 180">
  <!-- plate -->
  <ellipse cx="120" cy="150" rx="90" ry="14" fill="#ffe3f3"/>
  <!-- layer 1 -->
  <rect x="40" y="110" width="160" height="40" rx="10" fill="#ffe6f3" stroke="#ff9ad6" stroke-width="2"/>
  <!-- layer 2 -->
  <rect x="55" y="80" width="130" height="35" rx="10" fill="#ffd6ec" stroke="#ff9ad6" stroke-width="2"/>
  <!-- frosting drips -->
  <path d="M55,100 C70,120 85,100 100,100 C115,120 130,98 145,100 C160,120 175,98 185,100" fill="none" stroke="#ffa3d9" stroke-width="3"/>
  <!-- candles -->
  <g>
    <rect x="80" y="58" width="8" height="22" fill="#b892ff"/>
    <rect x="116" y="58" width="8" height="22" fill="#ffbde6"/>
    <rect x="152" y="58" width="8" height="22" fill="#e9c6ff"/>
    <path d="M84,56 q4,-8 8,0" fill="#ffd166"/>
    <path d="M120,56 q4,-8 8,0" fill="#ffd166"/>
    <path d="M156,56 q4,-8 8,0" fill="#ffd166"/>
  </g>
</svg>
